<svg xmlns="http://www.w3.org/2000/svg" xmlns:xlink="http://www.w3.org/1999/xlink" viewBox="0 0 500 500">
  <defs>
    <style>
      .cls-1 {
        fill: url(#linear-gradient);
      }

      .cls-2 {
        fill: #fff;
      }
    </style>
    <linearGradient id="linear-gradient" x1="250" y1="500" x2="250" y2="0" gradientUnits="userSpaceOnUse">
      <stop offset="0" stop-color="#5856d6"/>
      <stop offset="1" stop-color="#c644fc"/>
    </linearGradient>
  </defs>
  <g>
    <rect class="cls-1" x="0" y="0" width="500" height="500"/>
    <path d="M499,1V499H1V1H499m1-1H0V500H500V0Z"/>
  </g>
  <path class="cls-2" d="M53.46,284,88,343.35l75.63-43.44-34.47-59.63Z"/>
  <path class="cls-2" d="M274.21,252.78l18.24-10.64-48.87-84.77L141.15,216.71C155.44,241.35,188,297.22,188,297.22l12-6.42c.19-.1.43,0,.64,0L131.48,440.55h27.09l76.33-165.1,17.91-10.33,75.45,150.77H356ZM254.34,132.3c19.12,32.55,46.43,80.34,66.58,114.64L446,174.69,379.17,59.41Z"/>
</svg>
